# xmcd
#
# Track frame offsets:
#	150
#	21612
#	40303
#	57211
#	78981
#	95608
#	115010
#	137889
#	156131
#	174693
#	195614
#	212596
#	230849
#	248715
#	267561
#	282864
#	302695
#	321943
#
# Disc length: 4510
#
# Revision: 2
# Processed by: cddbd v1.5.1PL0 Copyright (c) Steve Scherf et al.
# Submitted via: EasyCDDAExtractor 6.2.0.3
# Normalized: r1:DSETVAR1
#
DISCID=08119c12
DTITLE=Various Artist - BMG Sampler 0409
DYEAR=2004
DGENRE=R&B
TTITLE0=Alicia Keys - Diary
TTITLE1=Nivea ft. Rasheeda - I Like It Like That
TTITLE2=Usher and Alicia Keys - My Boo
TTITLE3=Usher - Red Light
TTITLE4=R.Kelly - Red Carpet
TTITLE5=Jay-Z and R.Kelly - Big Chips
TTITLE6=R.Kelly and Jay-Z - Don't Let Me Die
TTITLE7=Daz ft. Nate Dogg - N Tha Hood
TTITLE8=De La Soul ft. Yummy - Much More
TTITLE9=De La Soul ft. Carl Thomas - It's Like That
TTITLE10=De La Soul ft. Ghostface - He Comes
TTITLE11=Dirtbag - Slow Down Lil Buddy
TTITLE12=Petey Pablo ft. Lil Jon - Vibrate
TTITLE13=Mobb Deep ft. Lil Jon - Real Ganstaz
TTITLE14=Ciara ft. Missy - 1,2 Step
TTITLE15=Ciara ft. Ti and Jazze Pha - Goodies
TTITLE16=Petter ft. Ken - Kom Kom Kom
TTITLE17=Petter - Drömmen
EXTD=
EXTT0=
EXTT1=
EXTT2=
EXTT3=
EXTT4=
EXTT5=
EXTT6=
EXTT7=
EXTT8=
EXTT9=
EXTT10=
EXTT11=
EXTT12=
EXTT13=
EXTT14=
EXTT15=
EXTT16=
EXTT17=
PLAYORDER=
